<mxfile host="app.diagrams.net" modified="2024-06-03T14:12:09.810Z" agent="Mozilla/5.0 (Windows NT 10.0; Win64; x64) AppleWebKit/537.36 (KHTML, like Gecko) Chrome/125.0.0.0 Safari/537.36" etag="JPjzhPqviE5wyYfj06eY" version="24.4.13" type="device">
  <diagram name="Trang-1" id="YtnVib5KexCoWNn69K5i">
    <mxGraphModel dx="1834" dy="1584" grid="0" gridSize="10" guides="1" tooltips="1" connect="1" arrows="1" fold="1" page="0" pageScale="1" pageWidth="827" pageHeight="1169" math="0" shadow="0">
      <root>
        <mxCell id="0" />
        <mxCell id="1" parent="0" />
        <mxCell id="oOCL-VUgpgW_TxPgploo-60" value="Start" style="ellipse;whiteSpace=wrap;html=1;fontStyle=1;fontFamily=Helvetica;fontSize=18;strokeWidth=2;fillColor=#60a917;strokeColor=#60A917;fontColor=#ffffff;" parent="1" vertex="1">
          <mxGeometry x="378" y="-292" width="200" height="90" as="geometry" />
        </mxCell>
        <mxCell id="oOCL-VUgpgW_TxPgploo-61" value="Print out string data&lt;div&gt;of distance on screen LCD 20x4&lt;/div&gt;" style="rounded=0;whiteSpace=wrap;html=1;fontStyle=1;fontFamily=Helvetica;fontSize=18;strokeWidth=2;fillColor=#8B4CA6;fontColor=#ffffff;strokeColor=#8B4CA6;" parent="1" vertex="1">
          <mxGeometry x="-190" y="-30" width="200" height="90" as="geometry" />
        </mxCell>
        <mxCell id="oOCL-VUgpgW_TxPgploo-62" value="End" style="ellipse;whiteSpace=wrap;html=1;fontStyle=1;fontFamily=Helvetica;fontSize=18;strokeWidth=2;fillColor=#60a917;strokeColor=#60A917;fontColor=#ffffff;" parent="1" vertex="1">
          <mxGeometry x="380" y="178" width="200" height="90" as="geometry" />
        </mxCell>
        <mxCell id="oOCL-VUgpgW_TxPgploo-63" value="Receive string data from detecing MCU" style="rounded=0;whiteSpace=wrap;html=1;fontStyle=1;fontFamily=Helvetica;fontSize=18;strokeWidth=2;fillColor=#8B4CA6;fontColor=#ffffff;strokeColor=#8B4CA6;" parent="1" vertex="1">
          <mxGeometry x="378" y="-161" width="200" height="90" as="geometry" />
        </mxCell>
        <mxCell id="oOCL-VUgpgW_TxPgploo-64" value="Flow Chart 5.2.5" style="text;html=1;align=center;verticalAlign=middle;whiteSpace=wrap;rounded=0;fontSize=42;fontStyle=1" parent="1" vertex="1">
          <mxGeometry x="303" y="-474" width="360" height="120" as="geometry" />
        </mxCell>
        <mxCell id="oOCL-VUgpgW_TxPgploo-65" value="Is string data available&lt;div style=&quot;font-size: 16px;&quot;&gt;from ZigBee devices&lt;/div&gt;" style="rhombus;whiteSpace=wrap;html=1;fillColor=#00AFDB;strokeColor=#00AFDB;fontSize=16;fontStyle=1;fontColor=#FFFFFF;" parent="1" vertex="1">
          <mxGeometry x="61" y="-45" width="230" height="120" as="geometry" />
        </mxCell>
        <mxCell id="oOCL-VUgpgW_TxPgploo-66" value="String data" style="shape=parallelogram;perimeter=parallelogramPerimeter;whiteSpace=wrap;html=1;fixedSize=1;strokeWidth=2;fontStyle=1;fontSize=18;fillColor=#009999;strokeColor=#009999;fontColor=#FFFFFF;" parent="1" vertex="1">
          <mxGeometry x="373" y="-30" width="210" height="90" as="geometry" />
        </mxCell>
        <mxCell id="oOCL-VUgpgW_TxPgploo-67" value="Print out string:&lt;br&gt;&lt;div&gt;&quot;ERROR !!!&quot;&lt;/div&gt;&lt;div&gt;in the BACK line&lt;/div&gt;&lt;div&gt;on LCD&lt;/div&gt;" style="rounded=0;whiteSpace=wrap;html=1;fontStyle=1;fontFamily=Helvetica;fontSize=18;strokeWidth=2;fillColor=#8B4CA6;fontColor=#ffffff;strokeColor=#8B4CA6;" parent="1" vertex="1">
          <mxGeometry x="74" y="178" width="200" height="90" as="geometry" />
        </mxCell>
        <mxCell id="oOCL-VUgpgW_TxPgploo-68" value="" style="endArrow=classic;html=1;rounded=0;strokeWidth=2;entryX=1;entryY=0.5;entryDx=0;entryDy=0;exitX=0;exitY=0.5;exitDx=0;exitDy=0;" parent="1" source="oOCL-VUgpgW_TxPgploo-65" target="oOCL-VUgpgW_TxPgploo-61" edge="1">
          <mxGeometry width="50" height="50" relative="1" as="geometry">
            <mxPoint x="43" y="71" as="sourcePoint" />
            <mxPoint x="101" y="71" as="targetPoint" />
          </mxGeometry>
        </mxCell>
        <mxCell id="oOCL-VUgpgW_TxPgploo-69" value="" style="endArrow=classic;html=1;rounded=0;strokeWidth=2;entryX=1;entryY=0.5;entryDx=0;entryDy=0;exitX=0;exitY=0.5;exitDx=0;exitDy=0;" parent="1" source="oOCL-VUgpgW_TxPgploo-66" target="oOCL-VUgpgW_TxPgploo-65" edge="1">
          <mxGeometry width="50" height="50" relative="1" as="geometry">
            <mxPoint x="285" y="40" as="sourcePoint" />
            <mxPoint x="368.0000000000007" y="40" as="targetPoint" />
          </mxGeometry>
        </mxCell>
        <mxCell id="oOCL-VUgpgW_TxPgploo-70" value="YES" style="text;html=1;align=center;verticalAlign=middle;whiteSpace=wrap;rounded=0;fontSize=18;fontStyle=1;fontColor=#00AFDB;" parent="1" vertex="1">
          <mxGeometry x="892" y="-19" width="60" height="30" as="geometry" />
        </mxCell>
        <mxCell id="oOCL-VUgpgW_TxPgploo-71" value="" style="group" parent="1" vertex="1" connectable="0">
          <mxGeometry x="845" y="-292" width="307" height="143" as="geometry" />
        </mxCell>
        <mxCell id="oOCL-VUgpgW_TxPgploo-72" value="" style="rounded=0;whiteSpace=wrap;html=1;" parent="oOCL-VUgpgW_TxPgploo-71" vertex="1">
          <mxGeometry width="307" height="143" as="geometry" />
        </mxCell>
        <mxCell id="oOCL-VUgpgW_TxPgploo-73" value="" style="rounded=0;whiteSpace=wrap;html=1;fillColor=#8B4CA6;strokeColor=#8B4CA6;" parent="oOCL-VUgpgW_TxPgploo-71" vertex="1">
          <mxGeometry x="17" y="86" width="175" height="24" as="geometry" />
        </mxCell>
        <mxCell id="oOCL-VUgpgW_TxPgploo-74" value="" style="rounded=0;whiteSpace=wrap;html=1;fillColor=#00AFDB;strokeColor=#009999;" parent="oOCL-VUgpgW_TxPgploo-71" vertex="1">
          <mxGeometry x="17" y="62" width="175" height="24" as="geometry" />
        </mxCell>
        <mxCell id="oOCL-VUgpgW_TxPgploo-75" value="" style="rounded=0;whiteSpace=wrap;html=1;fillColor=#60A917;strokeColor=#60A917;" parent="oOCL-VUgpgW_TxPgploo-71" vertex="1">
          <mxGeometry x="17" y="38" width="175" height="24" as="geometry" />
        </mxCell>
        <mxCell id="oOCL-VUgpgW_TxPgploo-76" value="Legend" style="text;html=1;align=center;verticalAlign=middle;whiteSpace=wrap;rounded=0;fontStyle=5;fontSize=19;" parent="oOCL-VUgpgW_TxPgploo-71" vertex="1">
          <mxGeometry x="74.5" y="2" width="60" height="30" as="geometry" />
        </mxCell>
        <mxCell id="oOCL-VUgpgW_TxPgploo-77" value="Start/ End Point" style="text;html=1;align=left;verticalAlign=middle;whiteSpace=wrap;rounded=0;fontStyle=1;fontSize=14;" parent="oOCL-VUgpgW_TxPgploo-71" vertex="1">
          <mxGeometry x="196" y="35" width="109" height="30" as="geometry" />
        </mxCell>
        <mxCell id="oOCL-VUgpgW_TxPgploo-78" value="Boolean" style="text;html=1;align=left;verticalAlign=middle;whiteSpace=wrap;rounded=0;fontStyle=1;fontSize=14;" parent="oOCL-VUgpgW_TxPgploo-71" vertex="1">
          <mxGeometry x="196" y="59" width="94" height="30" as="geometry" />
        </mxCell>
        <mxCell id="oOCL-VUgpgW_TxPgploo-79" value="Task" style="text;html=1;align=left;verticalAlign=middle;whiteSpace=wrap;rounded=0;fontStyle=1;fontSize=14;" parent="oOCL-VUgpgW_TxPgploo-71" vertex="1">
          <mxGeometry x="196" y="83" width="81" height="30" as="geometry" />
        </mxCell>
        <mxCell id="oOCL-VUgpgW_TxPgploo-80" value="" style="rounded=0;whiteSpace=wrap;html=1;fillColor=#009999;strokeColor=#009999;" parent="oOCL-VUgpgW_TxPgploo-71" vertex="1">
          <mxGeometry x="17" y="110" width="175" height="24" as="geometry" />
        </mxCell>
        <mxCell id="oOCL-VUgpgW_TxPgploo-81" value="Input/ Output" style="text;html=1;align=left;verticalAlign=middle;whiteSpace=wrap;rounded=0;fontStyle=1;fontSize=14;" parent="oOCL-VUgpgW_TxPgploo-71" vertex="1">
          <mxGeometry x="198" y="107" width="92" height="30" as="geometry" />
        </mxCell>
        <mxCell id="oOCL-VUgpgW_TxPgploo-82" value="&lt;font style=&quot;font-size: 18px;&quot;&gt;Is the vehicle&lt;/font&gt;&lt;div style=&quot;font-size: 18px;&quot;&gt;&lt;font style=&quot;font-size: 18px;&quot;&gt;in blind spot&lt;/font&gt;&lt;/div&gt;" style="rhombus;whiteSpace=wrap;html=1;fillColor=#00AFDB;strokeColor=#00AFDB;fontSize=18;fontStyle=1;fontColor=#FFFFFF;" parent="1" vertex="1">
          <mxGeometry x="665" y="-45" width="230" height="120" as="geometry" />
        </mxCell>
        <mxCell id="oOCL-VUgpgW_TxPgploo-83" value="Red LEDs OFF" style="rounded=0;whiteSpace=wrap;html=1;fontStyle=1;fontFamily=Helvetica;fontSize=18;strokeWidth=2;fillColor=#8B4CA6;fontColor=#ffffff;strokeColor=#8B4CA6;" parent="1" vertex="1">
          <mxGeometry x="682" y="178" width="200" height="90" as="geometry" />
        </mxCell>
        <mxCell id="oOCL-VUgpgW_TxPgploo-84" value="Red LEDs ON" style="rounded=0;whiteSpace=wrap;html=1;fontStyle=1;fontFamily=Helvetica;fontSize=18;strokeWidth=2;fillColor=#8B4CA6;fontColor=#ffffff;strokeColor=#8B4CA6;" parent="1" vertex="1">
          <mxGeometry x="952" y="-30" width="200" height="90" as="geometry" />
        </mxCell>
        <mxCell id="oOCL-VUgpgW_TxPgploo-85" value="" style="endArrow=classic;html=1;rounded=0;strokeWidth=2;entryX=0.5;entryY=0;entryDx=0;entryDy=0;exitX=0.5;exitY=1;exitDx=0;exitDy=0;" parent="1" source="oOCL-VUgpgW_TxPgploo-60" target="oOCL-VUgpgW_TxPgploo-63" edge="1">
          <mxGeometry width="50" height="50" relative="1" as="geometry">
            <mxPoint x="436.5" y="-188" as="sourcePoint" />
            <mxPoint x="519.5000000000007" y="-188" as="targetPoint" />
          </mxGeometry>
        </mxCell>
        <mxCell id="oOCL-VUgpgW_TxPgploo-86" value="" style="endArrow=classic;html=1;rounded=0;strokeWidth=2;entryX=0.5;entryY=0.018;entryDx=0;entryDy=0;exitX=0.5;exitY=1;exitDx=0;exitDy=0;entryPerimeter=0;" parent="1" source="oOCL-VUgpgW_TxPgploo-63" target="oOCL-VUgpgW_TxPgploo-66" edge="1">
          <mxGeometry width="50" height="50" relative="1" as="geometry">
            <mxPoint x="266" y="-35" as="sourcePoint" />
            <mxPoint x="349.0000000000007" y="-35" as="targetPoint" />
          </mxGeometry>
        </mxCell>
        <mxCell id="oOCL-VUgpgW_TxPgploo-87" value="" style="endArrow=classic;html=1;rounded=0;strokeWidth=2;entryX=0;entryY=0.5;entryDx=0;entryDy=0;exitX=1;exitY=0.5;exitDx=0;exitDy=0;" parent="1" source="oOCL-VUgpgW_TxPgploo-67" target="oOCL-VUgpgW_TxPgploo-62" edge="1">
          <mxGeometry width="50" height="50" relative="1" as="geometry">
            <mxPoint x="290" y="143" as="sourcePoint" />
            <mxPoint x="373.0000000000007" y="143" as="targetPoint" />
          </mxGeometry>
        </mxCell>
        <mxCell id="oOCL-VUgpgW_TxPgploo-88" value="" style="endArrow=classic;html=1;rounded=0;strokeWidth=2;entryX=1;entryY=0.5;entryDx=0;entryDy=0;" parent="1" source="oOCL-VUgpgW_TxPgploo-83" target="oOCL-VUgpgW_TxPgploo-62" edge="1">
          <mxGeometry width="50" height="50" relative="1" as="geometry">
            <mxPoint x="562.9999999999995" y="168.00000000000023" as="sourcePoint" />
            <mxPoint x="664.9999999999998" y="168.00000000000023" as="targetPoint" />
          </mxGeometry>
        </mxCell>
        <mxCell id="oOCL-VUgpgW_TxPgploo-89" value="" style="endArrow=classic;html=1;rounded=0;strokeWidth=2;exitX=1;exitY=0.5;exitDx=0;exitDy=0;" parent="1" source="oOCL-VUgpgW_TxPgploo-66" target="oOCL-VUgpgW_TxPgploo-82" edge="1">
          <mxGeometry width="50" height="50" relative="1" as="geometry">
            <mxPoint x="634.9964020465632" y="60" as="sourcePoint" />
            <mxPoint x="636.1407490269737" y="178.0003955618838" as="targetPoint" />
          </mxGeometry>
        </mxCell>
        <mxCell id="oOCL-VUgpgW_TxPgploo-90" value="" style="endArrow=classic;html=1;rounded=0;strokeWidth=2;entryX=0.5;entryY=0;entryDx=0;entryDy=0;" parent="1" source="oOCL-VUgpgW_TxPgploo-65" target="oOCL-VUgpgW_TxPgploo-67" edge="1">
          <mxGeometry width="50" height="50" relative="1" as="geometry">
            <mxPoint x="318" y="-3" as="sourcePoint" />
            <mxPoint x="401.0000000000007" y="-3" as="targetPoint" />
          </mxGeometry>
        </mxCell>
        <mxCell id="oOCL-VUgpgW_TxPgploo-91" value="" style="endArrow=classic;html=1;rounded=0;strokeWidth=2;entryX=0;entryY=0.5;entryDx=0;entryDy=0;exitX=1;exitY=0.5;exitDx=0;exitDy=0;" parent="1" source="oOCL-VUgpgW_TxPgploo-82" target="oOCL-VUgpgW_TxPgploo-84" edge="1">
          <mxGeometry width="50" height="50" relative="1" as="geometry">
            <mxPoint x="946" y="-5" as="sourcePoint" />
            <mxPoint x="888.9999999999998" y="-5" as="targetPoint" />
          </mxGeometry>
        </mxCell>
        <mxCell id="oOCL-VUgpgW_TxPgploo-92" value="" style="endArrow=classic;html=1;rounded=0;strokeWidth=2;exitX=0.5;exitY=1;exitDx=0;exitDy=0;" parent="1" source="oOCL-VUgpgW_TxPgploo-82" target="oOCL-VUgpgW_TxPgploo-83" edge="1">
          <mxGeometry width="50" height="50" relative="1" as="geometry">
            <mxPoint x="824" y="115" as="sourcePoint" />
            <mxPoint x="722" y="115" as="targetPoint" />
          </mxGeometry>
        </mxCell>
        <mxCell id="oOCL-VUgpgW_TxPgploo-93" value="" style="endArrow=classic;html=1;rounded=0;strokeWidth=2;entryX=0.5;entryY=1;entryDx=0;entryDy=0;exitX=0.5;exitY=1;exitDx=0;exitDy=0;" parent="1" edge="1">
          <mxGeometry width="50" height="50" relative="1" as="geometry">
            <mxPoint x="1066" y="60" as="sourcePoint" />
            <mxPoint x="494" y="268" as="targetPoint" />
            <Array as="points">
              <mxPoint x="1066" y="310" />
              <mxPoint x="494" y="309" />
            </Array>
          </mxGeometry>
        </mxCell>
        <mxCell id="oOCL-VUgpgW_TxPgploo-94" value="" style="endArrow=classic;html=1;rounded=0;strokeWidth=2;exitX=0.5;exitY=1;exitDx=0;exitDy=0;entryX=0.483;entryY=1.018;entryDx=0;entryDy=0;entryPerimeter=0;" parent="1" source="oOCL-VUgpgW_TxPgploo-61" edge="1">
          <mxGeometry width="50" height="50" relative="1" as="geometry">
            <mxPoint x="-110" y="58.000000000000064" as="sourcePoint" />
            <mxPoint x="460.60000000000014" y="267.4399999999999" as="targetPoint" />
            <Array as="points">
              <mxPoint x="-91" y="310" />
              <mxPoint x="461" y="309" />
            </Array>
          </mxGeometry>
        </mxCell>
        <mxCell id="oOCL-VUgpgW_TxPgploo-95" value="YES" style="text;html=1;align=center;verticalAlign=middle;whiteSpace=wrap;rounded=0;fontSize=18;fontStyle=1;fontColor=#00AFDB;" parent="1" vertex="1">
          <mxGeometry x="14" y="-19" width="60" height="30" as="geometry" />
        </mxCell>
        <mxCell id="oOCL-VUgpgW_TxPgploo-96" value="NO" style="text;html=1;align=center;verticalAlign=middle;whiteSpace=wrap;rounded=0;fontSize=18;fontStyle=1;fontColor=#00AFDB;" parent="1" vertex="1">
          <mxGeometry x="123" y="137" width="59" height="30" as="geometry" />
        </mxCell>
        <mxCell id="oOCL-VUgpgW_TxPgploo-97" value="NO" style="text;html=1;align=center;verticalAlign=middle;whiteSpace=wrap;rounded=0;fontSize=18;fontStyle=1;fontColor=#00AFDB;" parent="1" vertex="1">
          <mxGeometry x="776" y="137" width="59" height="30" as="geometry" />
        </mxCell>
      </root>
    </mxGraphModel>
  </diagram>
</mxfile>
